<svg xmlns="http://www.w3.org/2000/svg" width="158.092" height="28">
  <path
    d="M-44.376.36a9.249,9.249,0,0,1-3.36-.576,6.644,6.644,0,0,1-2.52-1.692A7.573,7.573,0,0,1-51.84-4.632a11.366,11.366,0,0,1-.552-3.7,10,10,0,0,1,.636-3.7,8,8,0,0,1,1.74-2.724,7.318,7.318,0,0,1,2.592-1.692,8.765,8.765,0,0,1,3.192-.576,10.292,10.292,0,0,1,1.872.156,13.275,13.275,0,0,1,1.464.348,6.02,6.02,0,0,1,1.032.408q.408.216.576.312l-.888,2.472A7.053,7.053,0,0,0-41.82-14a7.944,7.944,0,0,0-2.316-.324,5.408,5.408,0,0,0-2.016.372,4.363,4.363,0,0,0-1.62,1.116,5.2,5.2,0,0,0-1.068,1.872,8.116,8.116,0,0,0-.384,2.616,9.228,9.228,0,0,0,.3,2.424A5.368,5.368,0,0,0-48-4.02a4.2,4.2,0,0,0,1.584,1.248,5.455,5.455,0,0,0,2.3.444A8.742,8.742,0,0,0-41.5-2.652a10.392,10.392,0,0,0,1.56-.612l.816,2.472a4.159,4.159,0,0,1-.78.384,11.229,11.229,0,0,1-1.164.372,11.579,11.579,0,0,1-1.512.288A14.139,14.139,0,0,1-44.376.36Zm10.992-2.4a10.806,10.806,0,0,0,2.04-.144V-5.4a5.649,5.649,0,0,0-.7-.144,6.489,6.489,0,0,0-1.008-.072,6.706,6.706,0,0,0-.972.072,3.029,3.029,0,0,0-.888.264,1.61,1.61,0,0,0-.636.54,1.508,1.508,0,0,0-.24.876,1.536,1.536,0,0,0,.648,1.428A3.343,3.343,0,0,0-33.384-2.04Zm-.24-10.824a7.1,7.1,0,0,1,2.424.36A3.871,3.871,0,0,1-29.628-11.5a3.776,3.776,0,0,1,.84,1.572A7.693,7.693,0,0,1-28.536-7.9V-.288q-.672.144-2.028.348a20.711,20.711,0,0,1-3.06.2A9.185,9.185,0,0,1-35.688.048a4.339,4.339,0,0,1-1.6-.7A3.284,3.284,0,0,1-38.316-1.9a4.329,4.329,0,0,1-.372-1.9,3.661,3.661,0,0,1,.42-1.824,3.447,3.447,0,0,1,1.14-1.212A4.935,4.935,0,0,1-35.46-7.5a9.389,9.389,0,0,1,1.98-.2,8.939,8.939,0,0,1,1.008.06,9.4,9.4,0,0,1,1.128.2v-.48a3.758,3.758,0,0,0-.12-.96,1.989,1.989,0,0,0-.42-.8,1.965,1.965,0,0,0-.792-.54,3.428,3.428,0,0,0-1.236-.192,10.969,10.969,0,0,0-1.848.144,8.125,8.125,0,0,0-1.368.336l-.36-2.352a11.432,11.432,0,0,1,1.608-.384A12.61,12.61,0,0,1-33.624-12.864ZM-21.816.24a7.878,7.878,0,0,1-2.148-.288A3.3,3.3,0,0,1-25.32-.8a2.678,2.678,0,0,1-.708-1.224,6.224,6.224,0,0,1-.2-1.668V-18.144l2.9-.48V-4.248a3.981,3.981,0,0,0,.084.888,1.418,1.418,0,0,0,.3.612,1.348,1.348,0,0,0,.588.384,4.6,4.6,0,0,0,.948.2Zm5.928,0a7.878,7.878,0,0,1-2.148-.288A3.3,3.3,0,0,1-19.392-.8,2.678,2.678,0,0,1-20.1-2.028,6.224,6.224,0,0,1-20.3-3.7V-18.144l2.9-.48V-4.248a3.981,3.981,0,0,0,.084.888,1.418,1.418,0,0,0,.3.612,1.348,1.348,0,0,0,.588.384,4.6,4.6,0,0,0,.948.2Zm9.1.12a9.249,9.249,0,0,1-3.36-.576,6.644,6.644,0,0,1-2.52-1.692,7.573,7.573,0,0,1-1.584-2.724,11.366,11.366,0,0,1-.552-3.7,10,10,0,0,1,.636-3.7,8,8,0,0,1,1.74-2.724A7.318,7.318,0,0,1-9.84-16.44a8.765,8.765,0,0,1,3.192-.576,10.292,10.292,0,0,1,1.872.156,13.275,13.275,0,0,1,1.464.348A6.02,6.02,0,0,1-2.28-16.1q.408.216.576.312l-.888,2.472A7.053,7.053,0,0,0-4.236-14a7.944,7.944,0,0,0-2.316-.324,5.408,5.408,0,0,0-2.016.372,4.363,4.363,0,0,0-1.62,1.116,5.2,5.2,0,0,0-1.068,1.872,8.116,8.116,0,0,0-.384,2.616,9.228,9.228,0,0,0,.3,2.424,5.368,5.368,0,0,0,.924,1.908A4.2,4.2,0,0,0-8.832-2.772a5.455,5.455,0,0,0,2.3.444,8.742,8.742,0,0,0,2.616-.324,10.392,10.392,0,0,0,1.56-.612l.816,2.472a4.159,4.159,0,0,1-.78.384A11.229,11.229,0,0,1-3.48-.036,11.579,11.579,0,0,1-4.992.252,14.139,14.139,0,0,1-6.792.36Zm5.568-6.576a7.887,7.887,0,0,1,.492-2.9A6.1,6.1,0,0,1,.576-11.2a5.414,5.414,0,0,1,1.872-1.248,5.8,5.8,0,0,1,2.16-.42,5.171,5.171,0,0,1,4.044,1.608,6.958,6.958,0,0,1,1.452,4.8q0,.24-.012.54t-.036.54H1.776a3.31,3.31,0,0,0,1.068,2.34,4.058,4.058,0,0,0,2.748.828A9.035,9.035,0,0,0,7.524-2.4,7.956,7.956,0,0,0,8.9-2.808L9.288-.432a4.646,4.646,0,0,1-.66.252,9.323,9.323,0,0,1-.96.24Q7.128.168,6.5.24A11.089,11.089,0,0,1,5.232.312,7.7,7.7,0,0,1,2.352-.18,5.362,5.362,0,0,1,.336-1.548,5.606,5.606,0,0,1-.84-3.612,8.428,8.428,0,0,1-1.224-6.216ZM7.2-7.512a3.816,3.816,0,0,0-.168-1.14,2.75,2.75,0,0,0-.492-.936,2.327,2.327,0,0,0-.792-.624,2.525,2.525,0,0,0-1.116-.228,2.6,2.6,0,0,0-1.176.252,2.68,2.68,0,0,0-.852.66,3.017,3.017,0,0,0-.54.936A5.07,5.07,0,0,0,1.8-7.512Zm4.776-4.632A19.455,19.455,0,0,1,14.16-12.6a18.831,18.831,0,0,1,2.976-.216,6.844,6.844,0,0,1,2.568.42,4.006,4.006,0,0,1,1.644,1.176A4.491,4.491,0,0,1,22.212-9.4a10.187,10.187,0,0,1,.252,2.34V0h-2.9V-6.6a9.531,9.531,0,0,0-.132-1.716A3.041,3.041,0,0,0,19-9.468a1.725,1.725,0,0,0-.816-.648,3.436,3.436,0,0,0-1.26-.2,9.677,9.677,0,0,0-1.152.072q-.6.072-.888.12V0h-2.9Zm12.7-3.72,2.9-.48v3.792H32.04v2.424H27.576v5.112a3.714,3.714,0,0,0,.48,2.16,1.9,1.9,0,0,0,1.632.648,5.319,5.319,0,0,0,1.4-.168,9.485,9.485,0,0,0,.972-.312l.48,2.3a10.892,10.892,0,0,1-1.32.444A7.18,7.18,0,0,1,29.3.288a6.077,6.077,0,0,1-2.244-.36,3.309,3.309,0,0,1-1.428-1.044,4.138,4.138,0,0,1-.744-1.656,10.288,10.288,0,0,1-.216-2.22Zm8.064,9.648a7.887,7.887,0,0,1,.492-2.9A6.1,6.1,0,0,1,34.536-11.2a5.414,5.414,0,0,1,1.872-1.248,5.8,5.8,0,0,1,2.16-.42,5.171,5.171,0,0,1,4.044,1.608,6.958,6.958,0,0,1,1.452,4.8q0,.24-.012.54t-.036.54h-8.28A3.31,3.31,0,0,0,36.8-3.036a4.058,4.058,0,0,0,2.748.828A9.035,9.035,0,0,0,41.484-2.4a7.956,7.956,0,0,0,1.38-.408l.384,2.376a4.646,4.646,0,0,1-.66.252,9.323,9.323,0,0,1-.96.24q-.54.108-1.164.18a11.089,11.089,0,0,1-1.272.072,7.7,7.7,0,0,1-2.88-.492A5.362,5.362,0,0,1,34.3-1.548,5.606,5.606,0,0,1,33.12-3.612,8.428,8.428,0,0,1,32.736-6.216Zm8.424-1.3a3.816,3.816,0,0,0-.168-1.14,2.75,2.75,0,0,0-.492-.936,2.327,2.327,0,0,0-.792-.624,2.525,2.525,0,0,0-1.116-.228,2.6,2.6,0,0,0-1.176.252,2.68,2.68,0,0,0-.852.66,3.017,3.017,0,0,0-.54.936,5.07,5.07,0,0,0-.264,1.08ZM53.088-9.936a9.258,9.258,0,0,0-1-.252,7.326,7.326,0,0,0-1.476-.132,5.839,5.839,0,0,0-1.02.1,6.131,6.131,0,0,0-.756.168V0h-2.9V-11.952a15.964,15.964,0,0,1,2.1-.588,13.091,13.091,0,0,1,2.8-.276q.288,0,.672.036t.768.1q.384.06.744.144t.576.156Z"
    transform="translate(104.5 23)" fill="#4a4a4a" />
  <path
    d="M23.608,27.333l-2-1.809a2.3,2.3,0,0,1,0-3.527l4.2-3.708c.2-.181.1-.452-.2-.452l-16.7-.09a8.171,8.171,0,0,1-5.4-1.989l-3-2.8a1.589,1.589,0,0,1,1.3-2.713l23.8.09c.3,0,.4-.271.2-.452l-4.3-3.8a2.4,2.4,0,0,1,0-3.617l1.9-1.718a3.054,3.054,0,0,1,4,0l12.7,11.485a2.5,2.5,0,0,1,0,3.708l-12.6,11.3a3.028,3.028,0,0,1-3.9.09Z"
    transform="translate(0 0)" fill="#6e74b6" />
</svg>
