<svg xmlns="http://www.w3.org/2000/svg" width="348.964" height="100.616">
  <path data-name="cardume" fill="none" d="M48.964.043h300v100.573h-300z" />
  <path
    d="m194.064 99.927-1.6-1.378a1.743 1.743 0 0 1 0-2.755l3.4-2.928c.1-.086 0-.344-.2-.344h-13.8a6.9 6.9 0 0 1-4.5-1.636l-2.5-2.153c-1-.775-.3-2.153 1-2.153l19.7.086c.2 0 .4-.258.2-.344l-3.5-2.928a1.833 1.833 0 0 1 0-2.842l1.6-1.378a2.633 2.633 0 0 1 3.3 0l10.5 9.041a1.924 1.924 0 0 1 0 2.928l-10.4 8.869a2.4 2.4 0 0 1-3.2-.086Z"
    fill="#f7a700" data-name="Group" />
  <g data-name="Group">
    <path data-name="Vector"
      d="m126.564 88.647-1.6-1.288a1.492 1.492 0 0 1 0-2.5l3.2-2.583a.218.218 0 0 0-.2-.344h-13a6.421 6.421 0 0 1-4.2-1.464l-2.4-1.98c-.9-.689-.2-1.894 1-1.894l18.6.086c.2 0 .3-.258.2-.344l-3.3-2.669a1.573 1.573 0 0 1 0-2.583l1.5-1.206a2.582 2.582 0 0 1 3.1 0l9.9 8.18a1.573 1.573 0 0 1 0 2.583l-9.9 8.008a2.289 2.289 0 0 1-2.9 0Z"
      fill="#6e74b6" />
  </g>
  <g data-name="Group">
    <path data-name="Vector"
      d="m320.964 61.437-3.2-2.838a3.487 3.487 0 0 1 0-5.511l6.7-5.769a.392.392 0 0 0-.3-.689l-26.8-.086a12.95 12.95 0 0 1-8.7-3.186l-4.9-4.309c-1.8-1.636-.5-4.305 2-4.305l38.4.086a.392.392 0 0 0 .3-.689l-6.9-5.942a3.694 3.694 0 0 1-.1-5.769l3.1-2.669a5.124 5.124 0 0 1 6.5 0l20.5 18.082a3.757 3.757 0 0 1 0 5.769l-20.3 17.738a5.19 5.19 0 0 1-6.3.086Z"
      fill="#d60b52" />
  </g>
  <g data-name="Group">
    <path data-name="Vector"
      d="m265.964 31.644-1.9-1.722a2.121 2.121 0 0 1 0-3.358l4.1-3.53c.2-.172 0-.431-.2-.431l-16.2-.085a8.145 8.145 0 0 1-5.3-1.9l-3-2.669a1.5 1.5 0 0 1 1.2-2.583l23.3.086c.3 0 .4-.258.2-.431l-4.2-3.616a2.21 2.21 0 0 1 0-3.444l1.9-1.633a3.032 3.032 0 0 1 3.9 0l12.4 11.022a2.3 2.3 0 0 1 0 3.53l-12.3 10.763a3.032 3.032 0 0 1-3.9 0Z"
      fill="#e94273" />
  </g>
  <g data-name="Group">
    <path data-name="Vector"
      d="m284.564 68.843-1.4-1.205a1.511 1.511 0 0 1 0-2.411l2.9-2.5c.2-.086.1-.258-.1-.258h-11.8a5.934 5.934 0 0 1-3.8-1.378l-2.1-1.892c-.8-.689-.2-1.808.9-1.808l16.9.086c.1 0 .2-.172.1-.258l-3-2.583a1.6 1.6 0 0 1 0-2.5l1.4-1.206a2.154 2.154 0 0 1 2.8 0l9 7.75a1.6 1.6 0 0 1 0 2.5l-8.9 7.664a2.292 2.292 0 0 1-2.9 0Z"
      fill="#f7a600" />
  </g>
  <g data-name="Group">
    <path data-name="Vector"
      d="m257.064 55.323-1.6-1.292a1.573 1.573 0 0 1 0-2.583l3.2-2.755a.218.218 0 0 0-.2-.344h-13a6.421 6.421 0 0 1-4.2-1.464l-2.4-2.067c-.9-.689-.2-1.98 1-1.98l18.6.086c.2 0 .3-.258.2-.344l-3.3-2.755a1.657 1.657 0 0 1 0-2.669l1.5-1.292a2.356 2.356 0 0 1 3.1 0l9.9 8.525a1.743 1.743 0 0 1 0 2.755l-9.9 8.352a2.1 2.1 0 0 1-2.9-.172Z"
      fill="#00a7a7" />
  </g>
  <g data-name="Group">
    <path data-name="Vector"
      d="m220.264 41.372-2.4-2.067a2.678 2.678 0 0 1 0-4.133l5.1-4.305c.3-.172.1-.517-.2-.517l-20.3-.086a10.28 10.28 0 0 1-6.6-2.411l-3.7-3.181c-1.4-1.205-.4-3.186 1.5-3.186l29.1.086a.293.293 0 0 0 .2-.517l-5.2-4.391a2.732 2.732 0 0 1 0-4.305l2.3-1.987a3.771 3.771 0 0 1 4.9 0l15.5 13.433a2.732 2.732 0 0 1 0 4.305l-15.4 13.262a3.85 3.85 0 0 1-4.8 0Z"
      fill="#00a7a7" />
  </g>
  <g data-name="Group">
    <path data-name="Vector"
      d="m198.964 61.612-1.9-1.636a2.067 2.067 0 0 1 0-3.186l3.9-3.272c.2-.172 0-.431-.2-.431l-15.8-.086a8.214 8.214 0 0 1-5.1-1.808l-2.9-2.5c-1.1-.861-.3-2.411 1.2-2.411l22.7.086c.3 0 .4-.258.2-.431l-4.1-3.358a2.035 2.035 0 0 1 0-3.272l1.8-1.55a3.117 3.117 0 0 1 3.8 0l12.1 10.247a2.034 2.034 0 0 1 0 3.272l-12 10.075a3.114 3.114 0 0 1-3.7.258Z"
      fill="#d60b52" />
  </g>
  <g data-name="Group">
    <path data-name="Vector"
      d="m172.864 80.64-2.2-1.894a2.354 2.354 0 0 1 0-3.7l4.6-3.875c.2-.172.1-.431-.2-.431l-18.3-.088a9.046 9.046 0 0 1-5.9-2.153l-3.3-2.847c-1.2-1.033-.3-2.842 1.4-2.842h26.1c.3 0 .4-.258.2-.431l-4.7-3.961a2.444 2.444 0 0 1 0-3.789l2.1-1.802a3.51 3.51 0 0 1 4.4 0l14 12.055a2.535 2.535 0 0 1 0 3.875l-13.9 11.883a3.37 3.37 0 0 1-4.3 0Z"
      fill="#6e74b6" />
  </g>
  <g data-name="Group">
    <path data-name="Vector"
      d="m123.264 62.298-1.7-1.55a1.888 1.888 0 0 1 0-3.014l3.6-3.186c.1-.086 0-.344-.2-.344l-14.6-.086a7.249 7.249 0 0 1-4.7-1.722l-2.7-2.411c-1-.861-.3-2.325 1.1-2.325l20.9.086c.3 0 .4-.172.2-.344l-3.8-3.268a2.067 2.067 0 0 1 0-3.186l1.7-1.464a2.693 2.693 0 0 1 3.5 0l11.2 9.9a2.067 2.067 0 0 1 0 3.186l-11.1 9.73a2.776 2.776 0 0 1-3.4 0Z"
      fill="#00a7a7" />
  </g>
  <g data-name="Group">
    <path data-name="Vector"
      d="m110.964 38.791-1.3-1.033a1.279 1.279 0 0 1 0-2.067l2.6-2.153c.1-.086.1-.258-.1-.258h-10.6a5.179 5.179 0 0 1-3.4-1.205l-1.9-1.635c-.7-.517-.2-1.55.8-1.55l15.1.086c.1 0 .2-.172.1-.258l-2.7-2.239a1.366 1.366 0 0 1 0-2.153l1.2-1.033a2.094 2.094 0 0 1 2.6 0l8.1 6.716a1.366 1.366 0 0 1 0 2.153l-8 6.63a1.954 1.954 0 0 1-2.5 0Z"
      fill="#f7a700" />
  </g>
  <g data-name="Group">
    <path data-name="Vector"
      d="m92.364 26.22-1.5-1.288a1.6 1.6 0 0 1 0-2.5l3.1-2.583c.2-.172.1-.344-.1-.344h-12.6a6.154 6.154 0 0 1-4.1-1.464l-2.3-1.98c-.8-.689-.2-1.894 1-1.894l18 .086c.1 0 .2-.258.1-.344l-3.2-2.669a1.69 1.69 0 0 1 0-2.583l1.4-1.206a2.436 2.436 0 0 1 3 0l9.6 8.18a1.573 1.573 0 0 1 0 2.583l-9.5 8.008a2.293 2.293 0 0 1-2.9 0Z"
      fill="#d60b52" />
  </g>
  <g data-name="Group">
    <path data-name="Vector"
      d="m82.164 55.41-1.6-1.464a1.833 1.833 0 0 1 0-2.842l3.4-2.928c.1-.086 0-.344-.2-.344h-13.8a6.9 6.9 0 0 1-4.5-1.636l-2.5-2.239c-1-.775-.3-2.153 1-2.153l19.8.086c.2 0 .4-.258.2-.344l-3.6-3.014a1.925 1.925 0 0 1 0-2.928l1.6-1.378a2.633 2.633 0 0 1 3.3 0l10.5 9.213a1.925 1.925 0 0 1 0 2.928l-10.5 9.041a2.356 2.356 0 0 1-3.1 0Z"
      fill="#e94273" />
  </g>
  <g data-name="Group">
    <path data-name="Vector"
      d="m58.264 32.936-1.7-1.55a1.888 1.888 0 0 1 0-3.014l3.6-3.186c.1-.086 0-.344-.2-.344h-14.6a7.249 7.249 0 0 1-4.7-1.722l-2.7-2.411a1.339 1.339 0 0 1 1.1-2.325l20.9.086c.2 0 .4-.172.2-.344l-3.8-3.268a2.067 2.067 0 0 1 0-3.186l1.7-1.464a2.693 2.693 0 0 1 3.5 0l11.2 9.9a2.067 2.067 0 0 1 0 3.186l-11.1 9.73a2.661 2.661 0 0 1-3.4-.086Z"
      fill="#6e74b6" />
  </g>
  <g data-name="Group">
    <path data-name="Vector"
      d="m37.364 15.2-1.2-1.033a1.314 1.314 0 0 1 0-1.98l2.4-2.067c.1-.086 0-.258-.1-.258h-9.7a5.039 5.039 0 0 1-3.2-1.122l-1.8-1.55c-.7-.6-.2-1.55.7-1.55h14c.1 0 .2-.172.1-.258l-2.5-2.067a1.249 1.249 0 0 1 0-1.98l1.1-.947a2.05 2.05 0 0 1 2.4 0l7.4 6.372a1.279 1.279 0 0 1 0 2.067l-7.4 6.286a1.654 1.654 0 0 1-2.2.086Z"
      fill="#f7a700" />
  </g>
  <g data-name="Group">
    <path data-name="Vector"
      d="m17.864 35.089-1.5-1.292a1.69 1.69 0 0 1 0-2.583l3.1-2.669c.2-.172.1-.344-.1-.344h-12.6a6.154 6.154 0 0 1-4.1-1.464l-2.3-1.895c-.8-.775-.2-1.98 1-1.98l18 .086c.1 0 .2-.258.1-.344l-3.2-2.755a1.784 1.784 0 0 1 0-2.669l1.4-1.292a2.436 2.436 0 0 1 3 0l9.6 8.352a1.657 1.657 0 0 1 0 2.669l-9.5 8.18a2.293 2.293 0 0 1-2.9 0Z"
      fill="#d60b52" />
  </g>
  <g data-name="Group">
    <path data-name="Vector"
      d="m233.064 78.659-2-1.722a2.121 2.121 0 0 1 0-3.358l4.2-3.53c.2-.172.1-.431-.2-.431l-16.7-.085a8.417 8.417 0 0 1-5.4-1.9l-3-2.669c-1.1-.947-.3-2.583 1.3-2.583l23.8.086c.3 0 .4-.258.2-.431l-4.3-3.616a2.21 2.21 0 0 1 0-3.444l1.9-1.633a3.171 3.171 0 0 1 4 0l12.7 10.936a2.3 2.3 0 0 1 0 3.53l-12.6 10.764a3.145 3.145 0 0 1-3.9.086Z"
      fill="#6e74b6" />
  </g>
</svg>
