<svg width="16" height="12" viewBox="0 0 16 12" fill="none" xmlns="http://www.w3.org/2000/svg">
  <path fill-rule="evenodd" clip-rule="evenodd"
    d="M15 12C15.5523 12 16 11.5523 16 11C16 10.4477 15.5523 10 15 10H1C0.447715 10 0 10.4477 0 11C0 11.5523 0.447715 12 1 12H15ZM11 7C11.5523 7 12 6.55228 12 6C12 5.44772 11.5523 5 11 5H1C0.447715 5 0 5.44772 0 6C0 6.55228 0.447715 7 1 7H11ZM15 2C15.5523 2 16 1.55228 16 1C16 0.447715 15.5523 0 15 0H1C0.447715 0 0 0.447715 0 1C0 1.55228 0.447715 2 1 2H15Z"
    fill="#4A4A4A" />
</svg>
