<svg xmlns="http://www.w3.org/2000/svg" width="40" height="36.391">
  <path
    d="M6.6 23.67v4.813a2.043 2.043 0 0 1-2.046 2.04H2.195v5.58a.289.289 0 0 1-.288.288H.465a.289.289 0 0 1-.288-.288v-14.18a.289.289 0 0 1 .288-.288h4.089A2.038 2.038 0 0 1 6.6 23.67Zm-2.069 1.076a1.006 1.006 0 0 0-1.006-1.006h-1.1v4.49h1.1a1.006 1.006 0 0 0 1.006-1.007Zm9.756 11.309a.285.285 0 0 1-.282.33h-1.43a.285.285 0 0 1-.282-.247l-.33-2.365h-2.8l-.33 2.365a.285.285 0 0 1-.282.247H7.12a.282.282 0 0 1-.282-.33l2.288-14.18a.285.285 0 0 1 .282-.241h2.307a.285.285 0 0 1 .282.241Zm-2.7-4.525-1.03-7.078-1.03 7.078h2.059Zm18.829 4.525a.285.285 0 0 1-.282.33H28.7a.285.285 0 0 1-.282-.247l-.33-2.365h-2.8l-.33 2.365a.285.285 0 0 1-.282.247h-1.43a.282.282 0 0 1-.282-.33l2.289-14.181a.285.285 0 0 1 .282-.241h2.307a.285.285 0 0 1 .282.241Zm-2.696-4.524-1.03-7.078-1.03 7.078h2.06Zm-5.684-4.448a1.931 1.931 0 0 1-1.93 1.93h.418a1.512 1.512 0 0 1 1.512 1.51v5.58a.289.289 0 0 1-.288.288h-1.719a.289.289 0 0 1-.288-.288v-4.714a.866.866 0 0 0-.865-.865h-1.5v5.579a.289.289 0 0 1-.288.288h-1.442a.289.289 0 0 1-.288-.288v-14.18a.289.289 0 0 1 .288-.288h4.46a1.931 1.931 0 0 1 1.93 1.93v3.519Zm-2.289-2.518a1.09 1.09 0 0 0-1.089-1.089h-1.147v4.754h1.147a1.09 1.09 0 0 0 1.089-1.089Zm18.441 2.518a1.931 1.931 0 0 1-1.93 1.93h.418a1.512 1.512 0 0 1 1.511 1.51v5.58a.289.289 0 0 1-.288.288h-1.718a.289.289 0 0 1-.288-.288v-4.714a.866.866 0 0 0-.865-.865h-1.5v5.579a.289.289 0 0 1-.288.288H31.8a.289.289 0 0 1-.288-.288v-14.18a.289.289 0 0 1 .288-.288h4.46a1.931 1.931 0 0 1 1.93 1.93v3.519Zm-2.295-2.518a1.09 1.09 0 0 0-1.093-1.09h-1.143v4.754H34.8a1.09 1.09 0 0 0 1.089-1.089ZM0 14.723a.275.275 0 0 1 .288-.28H2.03a.282.282 0 0 1 .282.282v2a1.027 1.027 0 0 0 1.03 1.03h.135A1.018 1.018 0 0 0 4.5 16.738v-.83a3.112 3.112 0 0 0-1.141-2.4l-1.576-1.285A4.839 4.839 0 0 1 0 8.471v-.93a2.912 2.912 0 0 1 2.913-2.912h1.1a2.912 2.912 0 0 1 2.913 2.912V9.16a.289.289 0 0 1-.288.288H4.784A.289.289 0 0 1 4.5 9.16V7.583a.965.965 0 0 0-1.93 0v.406a3.18 3.18 0 0 0 1.1 2.407l1.4 1.212a5.332 5.332 0 0 1 1.85 4.042v1.436a2.81 2.81 0 0 1-2.807 2.807h-1.43A2.682 2.682 0 0 1 0 17.209v-2.486Zm8.132-9.806a.306.306 0 0 1 .288-.294h5.337a.289.289 0 0 1 .288.288v1.742a.289.289 0 0 1-.288.288h-3.5v3.713H13a.289.289 0 0 1 .288.288v1.9a.289.289 0 0 1-.288.289h-2.738v4.26h3.5a.289.289 0 0 1 .288.288v1.924a.289.289 0 0 1-.288.288H8.42a.289.289 0 0 1-.288-.288V4.917Zm16.322-.282a.315.315 0 0 1 .318.312v14.692a.255.255 0 0 1-.253.253H22.96a.255.255 0 0 1-.253-.253V8.206l-2.071 11.2a.252.252 0 0 1-.247.206h-.847a.252.252 0 0 1-.247-.206l-2.065-11.2v11.439a.255.255 0 0 1-.253.253h-1.561a.255.255 0 0 1-.253-.253V4.952a.316.316 0 0 1 .318-.318h2.736a.316.316 0 0 1 .312.265l1.436 9.085L21.406 4.9a.316.316 0 0 1 .312-.265h2.736Z"
    fill="var(--color-text)" />
  <path data-name="Vector"
    d="M39.732 6.906a1.024 1.024 0 0 1-.035 1.412L38.481 9.59a1.039 1.039 0 0 1-1.512-.024l-2.183-2.407v8.991a2.445 2.445 0 0 1-.683 1.695l-1.606 1.671a.674.674 0 0 1-1.165-.43V7.159l-2.183 2.407a1.034 1.034 0 0 1-1.517.024l-1.213-1.271a1.036 1.036 0 0 1-.018-1.413L32.415.287a.887.887 0 0 1 1.306 0l6.011 6.619Z"
    fill="#d60b52" />
</svg>
